<svg height='100px' width='100px'  fill="#4446ec" xmlns="http://www.w3.org/2000/svg" xmlns:xlink="http://www.w3.org/1999/xlink" version="1.1" x="0px" y="0px" viewBox="0 0 100 100" enable-background="new 0 0 100 100" xml:space="preserve"><g><path d="M29.947,37.903C29.949,48.959,38.943,60.695,50,60.695c11.058,0,20.052-11.736,20.052-22.792   c0-0.182-0.009-0.362-0.014-0.543H29.961C29.956,37.541,29.947,37.721,29.947,37.903z"></path><path d="M75.87,65.241v12.96c2.639,1.158,4.434,3.807,4.434,6.776V95c4.493-2.179,7.149-4.858,7.149-7.758   C87.453,78.109,82.866,70.051,75.87,65.241z"></path><path d="M66.997,77.583V61.297c-0.64-0.153-1.286-0.289-1.943-0.396c-3.89,2.963-8.742,4.728-13.998,4.728h-2.111   c-5.257,0-10.11-1.765-14-4.728c-0.657,0.106-1.303,0.242-1.943,0.396v16.286H66.997z"></path><path d="M24.129,78.201v-12.96c-6.996,4.81-11.583,12.867-11.583,22.001c0,2.899,2.656,5.58,7.149,7.758V84.978   C19.696,82.008,21.491,79.359,24.129,78.201z"></path><path d="M44.154,20.042c-0.093,0.016-0.187,0.024-0.279,0.024c-0.763,0-1.438-0.546-1.575-1.324l-1.73-9.81   c-6.793,3.443-11.453,10.489-11.453,18.628h-0.834c-1.692,0-3.063,1.371-3.063,3.063s1.372,3.064,3.063,3.064h43.432   c1.693,0,3.065-1.372,3.065-3.064s-1.372-3.063-3.065-3.063h-0.832c0-8.139-4.662-15.185-11.454-18.63l-1.731,9.812   c-0.137,0.778-0.813,1.324-1.576,1.324c-0.093,0-0.186-0.008-0.279-0.024c-0.871-0.155-1.452-0.985-1.296-1.856L56.52,6.977   C55.78,5.792,54.464,5,52.961,5h-5.924c-1.504,0-2.817,0.792-3.561,1.977l1.978,11.208C45.606,19.057,45.025,19.886,44.154,20.042z   "></path><circle cx="27.973" cy="84.655" r="3.671"></circle><circle cx="71.415" cy="84.655" r="3.671"></circle></g></svg>