<svg height='100px' width='100px'  fill="#ffffff" xmlns="http://www.w3.org/2000/svg" xmlns:xlink="http://www.w3.org/1999/xlink" version="1.1" x="0px" y="0px" viewBox="0 0 100 100" enable-background="new 0 0 100 100" xml:space="preserve"><path d="M9.811,66.799c-2.18,2.18-3.989,11.696-3.989,11.696c0,7.866,16.045,14.373,37.045,15.597l-8.911-39.391  C23.79,57.646,14.059,62.556,9.811,66.799z M90.191,66.799c-4.246-4.243-13.977-9.152-24.146-12.098l-8.904,39.391  c20.995-1.224,37.038-7.73,37.038-15.597C94.187,78.495,92.379,68.979,90.191,66.799z M50,57.72  c12.314,0,22.296-15.71,22.296-28.629c0-12.926-9.981-23.407-22.296-23.407c-12.313,0-22.296,10.48-22.296,23.407  C27.704,42.01,37.687,57.72,50,57.72z M50.007,62.13c-2.051,0-4.032-0.358-5.927-0.97l4.133,6.683l-3.749,26.334  c1.821,0.087,3.66,0.139,5.543,0.139c1.879,0,3.714-0.058,5.531-0.139L51.79,67.843l4.146-6.691  C54.031,61.771,52.055,62.13,50.007,62.13z"></path></svg>